<?xml version="1.0" encoding="utf-8"?>
<!-- Generator: Adobe Illustrator 16.0.3, SVG Export Plug-In . SVG Version: 6.00 Build 0)  -->
<!DOCTYPE svg PUBLIC "-//W3C//DTD SVG 1.1//EN" "http://www.w3.org/Graphics/SVG/1.1/DTD/svg11.dtd">
<svg version="1.1" xmlns="http://www.w3.org/2000/svg" xmlns:xlink="http://www.w3.org/1999/xlink" x="0px" y="0px"
	 width="595.28px" height="595.28px" viewBox="0 0 595.28 595.28" enable-background="new 0 0 595.28 595.28" xml:space="preserve">
<g id="viewport">
<g id="grau">
	<path id="11" fill="#EBEBEB" d="M395.992,24.085c-28.61-10.293-59.296-16.232-91.267-16.998v120.56
		c16.633,0.682,32.651,3.743,47.718,8.869L395.992,24.085z"/>
	<path id="21" fill="#EBEBEB" d="M488.635,78.616c-23.459-20.484-50.239-37.254-79.427-49.406l-43.553,112.439
		c15.219,6.65,29.275,15.46,41.784,26.048L488.635,78.616z"/>
	<path id="31" fill="#EBEBEB" d="M447.203,216.537l107.886-53.729c-14.597-27.834-33.566-53.01-56.008-74.611l-81.203,89.09
		C429.437,188.843,439.341,202.055,447.203,216.537z"/>
	<path id="41" fill="#EBEBEB" d="M586.334,264.773c-3.547-31.558-12.144-61.584-24.97-89.254l-107.936,53.754
		c6.404,14.585,10.831,30.237,12.917,46.621L586.334,264.773z"/>
	<path id="51" fill="#EBEBEB" d="M462.831,338.183l115.951,32.996c6.133-23.504,9.407-48.161,9.407-73.586
		c0-6.284-0.223-12.514-0.615-18.698L467.54,290.019c0.11,2.512,0.177,5.034,0.177,7.573
		C467.717,311.583,466.016,325.174,462.831,338.183z"/>
	<path id="61" fill="#EBEBEB" d="M533.132,467.809c18.078-24.977,32.289-52.934,41.736-83.006l-115.974-33.002
		c-5.237,15.59-12.675,30.166-21.937,43.37L533.132,467.809z"/>
	<path id="71" fill="#EBEBEB" d="M392.405,438.861l63.447,102.486c26.096-16.977,49.29-38.032,68.69-62.264l-96.198-72.656
		C417.979,418.866,405.878,429.804,392.405,438.861z"/>
	<path id="81" fill="#EBEBEB" d="M357.754,581.946c30.75-6.471,59.706-17.804,86.033-33.16l-63.469-102.52
		c-13.833,7.712-28.849,13.554-44.714,17.172L357.754,581.946z"/>
	<path id="91" fill="#EBEBEB" d="M273.804,466.027l-22.152,118.525c14.979,2.382,30.335,3.637,45.985,3.637
		c15.718,0,31.139-1.267,46.18-3.669L321.665,466c-7.851,1.111-15.869,1.698-24.028,1.698
		C289.547,467.698,281.593,467.12,273.804,466.027z"/>
	<path id="101" fill="#EBEBEB" d="M151.286,548.667c26.437,15.448,55.527,26.84,86.428,33.32l22.148-118.507
		c-16.014-3.633-31.166-9.529-45.111-17.329L151.286,548.667z"/>
	<path id="111" fill="#EBEBEB" d="M166.75,406.213l-96.192,72.653c19.387,24.262,42.576,45.347,68.67,62.353l63.447-102.487
		C189.202,429.646,177.104,418.681,166.75,406.213z"/>
	<path id="121" fill="#EBEBEB" d="M20.436,384.893c9.42,29.946,23.561,57.796,41.543,82.689l96.179-72.643
		c-9.17-13.118-16.542-27.584-21.747-43.05L20.436,384.893z"/>
	<path id="131" fill="#EBEBEB" d="M127.725,290.306L7.684,279.181c-0.381,6.09-0.598,12.225-0.598,18.411
		c0,25.458,3.283,50.146,9.432,73.676l115.948-32.996c-3.198-13.036-4.907-26.657-4.907-40.68
		C127.559,295.15,127.623,292.724,127.725,290.306z"/>
	<path id="141" fill="#EBEBEB" d="M33.991,175.35c-12.908,27.801-21.547,57.982-25.082,89.708l119.988,11.121
		c2.078-16.552,6.543-32.358,13.024-47.077L33.991,175.35z"/>
	<path id="151" fill="#EBEBEB" d="M177.625,177.064l-81.203-89.09c-22.498,21.607-41.514,46.806-56.148,74.669l107.889,53.731
		C156.063,201.862,166.014,188.63,177.625,177.064z"/>
	<path id="161" fill="#EBEBEB" d="M186.081,29.205c-29.094,12.11-55.797,28.807-79.202,49.2l81.201,89.087
		c12.451-10.499,26.428-19.24,41.554-25.847L186.081,29.205z"/>
	<path id="171" fill="#EBEBEB" d="M290.551,7.087c-31.967,0.765-62.648,6.704-91.256,16.994l43.549,112.431
		c15.063-5.124,31.078-8.184,47.707-8.865V7.087z"/>
</g>
<g id="farbe">
	<path id="1" fill="#C42231" fill-opacity="{{wheel[0]}}" d="M395.991,24.084c-28.61-10.293-59.296-16.232-91.267-16.998v120.559
		c16.633,0.683,32.651,3.744,47.718,8.87L395.991,24.084z"/>
	<path id="2" fill="#DDA73A" fill-opacity="{{wheel[1]}}" d="M488.634,78.616c-23.459-20.484-50.239-37.254-79.427-49.406l-43.553,112.439
		c15.219,6.65,29.275,15.46,41.784,26.048L488.634,78.616z"/>
	<path id="3" fill="#4E9E45" fill-opacity="{{wheel[2]}}" d="M447.202,216.537l107.886-53.73c-14.597-27.833-33.566-53.01-56.008-74.61l-81.203,89.09
		C429.436,188.843,439.34,202.055,447.202,216.537z"/>
	<path id="4" fill="#C31F2D" fill-opacity="{{wheel[3]}}" d="M586.333,264.773c-3.547-31.558-12.144-61.583-24.97-89.255l-107.936,53.754
		c6.404,14.585,10.831,30.237,12.916,46.621L586.333,264.773z"/>
	<path id="5" fill="#C63A21" fill-opacity="{{wheel[4]}}" d="M462.83,338.183l115.951,32.995c6.133-23.503,9.407-48.16,9.407-73.585
		c0-6.284-0.223-12.514-0.615-18.699l-120.034,11.125c0.11,2.511,0.177,5.034,0.177,7.573
		C467.716,311.583,466.016,325.174,462.83,338.183z"/>
	<path id="6" fill="#40A8C8" fill-opacity="{{wheel[5]}}" d="M533.131,467.808c18.078-24.977,32.289-52.933,41.736-83.006L458.894,351.8
		c-5.237,15.591-12.675,30.167-21.937,43.371L533.131,467.808z"/>
	<path id="7" fill="#EBBD15" fill-opacity="{{wheel[6]}}" d="M392.404,438.861l63.447,102.487c26.096-16.979,49.29-38.033,68.69-62.265l-96.198-72.656
		C417.979,418.866,405.877,429.803,392.404,438.861z"/>
	<path id="8" fill="#A21C44" fill-opacity="{{wheel[7]}}" d="M357.753,581.946c30.75-6.471,59.706-17.804,86.033-33.159l-63.469-102.52
		c-13.833,7.71-28.849,13.553-44.714,17.171L357.753,581.946z"/>
	<path id="9" fill="#CD5E22" fill-opacity="{{wheel[8]}}" d="M273.804,466.027l-22.152,118.525c14.98,2.383,30.335,3.637,45.986,3.637
		c15.717,0,31.138-1.266,46.179-3.669L321.664,466c-7.851,1.11-15.869,1.697-24.027,1.697
		C289.547,467.697,281.593,467.119,273.804,466.027z"/>
	<path id="10" fill="#C51C75" fill-opacity="{{wheel[9]}}" d="M151.286,548.668c26.436,15.447,55.526,26.839,86.427,33.319l22.149-118.507
		c-16.014-3.633-31.166-9.53-45.111-17.328L151.286,548.668z"/>
	<path id="11" fill="#DB8F20" fill-opacity="{{wheel[10]}}" d="M166.749,406.213l-96.192,72.653c19.387,24.262,42.576,45.346,68.669,62.354l63.447-102.488
		C189.201,429.646,177.104,418.681,166.749,406.213z"/>
	<path id="12" fill="#BF8D2C" fill-opacity="{{wheel[11]}}" d="M20.436,384.892c9.419,29.947,23.561,57.796,41.543,82.689l96.178-72.642
		c-9.17-13.118-16.542-27.584-21.747-43.051L20.436,384.892z"/>
	<path id="13" fill="#407F46" fill-opacity="{{wheel[12]}}" d="M127.724,290.306L7.683,279.181c-0.381,6.09-0.597,12.225-0.597,18.411
		c0,25.458,3.284,50.146,9.432,73.675l115.948-32.995c-3.199-13.036-4.907-26.657-4.907-40.68
		C127.559,295.15,127.622,292.724,127.724,290.306z"/>
	<path id="14" fill="#1F97D4" fill-opacity="{{wheel[13]}}" d="M33.99,175.349c-12.908,27.801-21.546,57.982-25.081,89.709l119.988,11.12
		c2.079-16.552,6.543-32.359,13.024-47.078L33.99,175.349z"/>
	<path id="15" fill="#59BA47" fill-opacity="{{wheel[14]}}" d="M177.625,177.064l-81.204-89.09c-22.498,21.607-41.513,46.806-56.148,74.668l107.89,53.731
		C156.062,201.862,166.014,188.63,177.625,177.064z"/>
	<path id="16" fill="#136A9F" fill-opacity="{{wheel[15]}}" d="M186.08,29.205c-29.093,12.11-55.796,28.807-79.202,49.2l81.201,89.087
		c12.451-10.499,26.428-19.24,41.553-25.847L186.08,29.205z"/>
	<path id="17" fill="#14496B" fill-opacity="{{wheel[16]}}" d="M290.551,7.087c-31.967,0.765-62.649,6.703-91.257,16.994l43.549,112.431
		c15.063-5.124,31.079-8.184,47.708-8.866V7.087z"/>
</g>
<g id="score">
	<text transform="matrix(1.0623 0 0 1 172.8853 335.7852)" font-family="'Arial'" font-size="124">{{wheel | sum() | round(2)}}</text>
</g>
</g>
</svg>
